<svg width="61" height="61" viewBox="0 0 61 61" fill="none" xmlns="http://www.w3.org/2000/svg">
<path d="M30.3809 60.75C46.9494 60.75 60.3809 47.3185 60.3809 30.75C60.3809 14.1815 46.9494 0.75 30.3809 0.75C13.8123 0.75 0.380859 14.1815 0.380859 30.75C0.380859 47.3185 13.8123 60.75 30.3809 60.75Z" fill="url(#paint0_linear_18_60)"/>
<g filter="url(#filter0_d_18_60)">
<path d="M29.0186 34.4635L15.3809 26.0252V39.122C15.3809 41.4098 17.2079 43.25 19.4428 43.25H41.3024C43.5536 43.25 45.3644 41.3932 45.3644 39.122V25.8594L31.7266 34.4469C30.911 34.9774 29.8669 34.9774 29.0186 34.4635Z" fill="white"/>
<path d="M42.738 18.25H18.0399C16.5717 18.25 15.3809 19.4602 15.3809 20.9523V23.2566C15.3809 23.439 15.4624 23.5882 15.6092 23.6877L28.9697 31.9271C29.8343 32.4576 30.911 32.4576 31.7755 31.9105L45.1523 23.4556C45.2991 23.3727 45.3807 23.2069 45.3807 23.0245V20.9523C45.397 19.4602 44.2061 18.25 42.738 18.25Z" fill="white"/>
</g>
<defs>
<filter id="filter0_d_18_60" x="11.3809" y="18.25" width="38" height="33" filterUnits="userSpaceOnUse" color-interpolation-filters="sRGB">
<feFlood flood-opacity="0" result="BackgroundImageFix"/>
<feColorMatrix in="SourceAlpha" type="matrix" values="0 0 0 0 0 0 0 0 0 0 0 0 0 0 0 0 0 0 127 0" result="hardAlpha"/>
<feOffset dy="4"/>
<feGaussianBlur stdDeviation="2"/>
<feComposite in2="hardAlpha" operator="out"/>
<feColorMatrix type="matrix" values="0 0 0 0 0.9375 0 0 0 0 0.42 0 0 0 0 0.128906 0 0 0 1 0"/>
<feBlend mode="normal" in2="BackgroundImageFix" result="effect1_dropShadow_18_60"/>
<feBlend mode="normal" in="SourceGraphic" in2="effect1_dropShadow_18_60" result="shape"/>
</filter>
<linearGradient id="paint0_linear_18_60" x1="8.59061" y1="51.1712" x2="54.5258" y2="8.12809" gradientUnits="userSpaceOnUse">
<stop stop-color="#FF7347"/>
<stop offset="1" stop-color="#FFC672"/>
</linearGradient>
</defs>
</svg>
