<svg width="56" height="56" viewBox="0 0 56 56" fill="none" xmlns="http://www.w3.org/2000/svg">
<g filter="url(#filter0_d_44_144)">
<circle cx="28" cy="26" r="24" transform="rotate(180 28 26)" fill="white"/>
</g>
<path d="M24 26C23.9992 25.8684 24.0245 25.7379 24.0742 25.6161C24.124 25.4943 24.1973 25.3834 24.29 25.29L30.29 19.29C30.4783 19.1017 30.7337 18.9959 31 18.9959C31.2663 18.9959 31.5217 19.1017 31.71 19.29C31.8983 19.4783 32.0041 19.7337 32.0041 20C32.0041 20.2663 31.8983 20.5217 31.71 20.71L26.41 26L31.7 31.29C31.8638 31.4813 31.9494 31.7274 31.9397 31.9791C31.93 32.2307 31.8257 32.4695 31.6476 32.6476C31.4695 32.8257 31.2307 32.93 30.9791 32.9397C30.7274 32.9494 30.4813 32.8638 30.29 32.7L24.29 26.7C24.1053 26.5137 24.0011 26.2623 24 26Z" fill="#1788CA"/>
<defs>
<filter id="filter0_d_44_144" x="0" y="0" width="56" height="56" filterUnits="userSpaceOnUse" color-interpolation-filters="sRGB">
<feFlood flood-opacity="0" result="BackgroundImageFix"/>
<feColorMatrix in="SourceAlpha" type="matrix" values="0 0 0 0 0 0 0 0 0 0 0 0 0 0 0 0 0 0 127 0" result="hardAlpha"/>
<feOffset dy="2"/>
<feGaussianBlur stdDeviation="2"/>
<feComposite in2="hardAlpha" operator="out"/>
<feColorMatrix type="matrix" values="0 0 0 0 0 0 0 0 0 0 0 0 0 0 0 0 0 0 0.12 0"/>
<feBlend mode="normal" in2="BackgroundImageFix" result="effect1_dropShadow_44_144"/>
<feBlend mode="normal" in="SourceGraphic" in2="effect1_dropShadow_44_144" result="shape"/>
</filter>
</defs>
</svg>
