<svg width="56" height="56" viewBox="0 0 56 56" fill="none" xmlns="http://www.w3.org/2000/svg">
<g filter="url(#filter0_d_44_149)">
<circle cx="28" cy="26" r="24" fill="white"/>
</g>
<path d="M32 26C32.0008 26.1316 31.9755 26.2621 31.9258 26.3839C31.876 26.5057 31.8027 26.6166 31.71 26.71L25.71 32.71C25.5217 32.8983 25.2663 33.0041 25 33.0041C24.7337 33.0041 24.4783 32.8983 24.29 32.71C24.1017 32.5217 23.9959 32.2663 23.9959 32C23.9959 31.7337 24.1017 31.4783 24.29 31.29L29.59 26L24.3 20.71C24.1362 20.5187 24.0506 20.2726 24.0603 20.0209C24.07 19.7693 24.1743 19.5305 24.3524 19.3524C24.5305 19.1743 24.7693 19.07 25.0209 19.0603C25.2726 19.0506 25.5187 19.1362 25.71 19.3L31.71 25.3C31.8947 25.4863 31.9989 25.7377 32 26Z" fill="#1788CA"/>
<defs>
<filter id="filter0_d_44_149" x="0" y="0" width="56" height="56" filterUnits="userSpaceOnUse" color-interpolation-filters="sRGB">
<feFlood flood-opacity="0" result="BackgroundImageFix"/>
<feColorMatrix in="SourceAlpha" type="matrix" values="0 0 0 0 0 0 0 0 0 0 0 0 0 0 0 0 0 0 127 0" result="hardAlpha"/>
<feOffset dy="2"/>
<feGaussianBlur stdDeviation="2"/>
<feComposite in2="hardAlpha" operator="out"/>
<feColorMatrix type="matrix" values="0 0 0 0 0 0 0 0 0 0 0 0 0 0 0 0 0 0 0.12 0"/>
<feBlend mode="normal" in2="BackgroundImageFix" result="effect1_dropShadow_44_149"/>
<feBlend mode="normal" in="SourceGraphic" in2="effect1_dropShadow_44_149" result="shape"/>
</filter>
</defs>
</svg>
